<?xml version="1.0" encoding="UTF-8" standalone="no"?>
<!-- Created with Inkscape (http://www.inkscape.org/) -->

<svg
    width="8.467mm"
    height="8.467mm"
    viewBox="0 0 8.467 8.467"
    version="1.1"
    id="svg5"
    inkscape:version="1.1.2 (0a00cf5339, 2022-02-04)"
    sodipodi:docname="rvklein-emsqpat--composite-pattern-14.svg"
    xmlns:inkscape="http://www.inkscape.org/namespaces/inkscape"
    xmlns:sodipodi="http://sodipodi.sourceforge.net/DTD/sodipodi-0.dtd"
    xmlns:xlink="http://www.w3.org/1999/xlink"
    xmlns="http://www.w3.org/2000/svg"
    xmlns:svg="http://www.w3.org/2000/svg">
    <sodipodi:namedview
        id="namedview7"
        pagecolor="#505050"
        bordercolor="#ffffff"
        borderopacity="1"
        inkscape:pageshadow="0"
        inkscape:pageopacity="0"
        inkscape:pagecheckerboard="1"
        inkscape:document-units="mm"
        showgrid="false"
        inkscape:zoom="23.899587"
        inkscape:cx="15.50236"
        inkscape:cy="11.046216"
        inkscape:window-width="1920"
        inkscape:window-height="1008"
        inkscape:window-x="0"
        inkscape:window-y="0"
        inkscape:window-maximized="1"
        inkscape:current-layer="layer1"
        width="8.467mm" />
    <defs
        id="defs2">
        <pattern
            id="ii"
            xlink:href="#qy"
            patternTransform="translate(109.82913,500.38497)" />
        <pattern
            id="qy"
            class="emsqpat"
            width="16"
            height="16"
            patternUnits="userSpaceOnUse">
            <path
                d="m0 0v1.0137l3.959 6.9863-3.959 6.9863v1.0137h0.57422l4.25-7.5h6.3535l4.248 7.5h0.57422v-1.0156l-3.9551-6.9844 3.9551-6.9844v-1.0156h-0.57422l-4.248 7.5h-6.3535l-4.25-7.5z"
                id="path2694" />
        </pattern>
    </defs>
    <g
        inkscape:label="Calque 1"
        inkscape:groupmode="layer"
        id="layer1">
        <g
            id="g5011"
            transform="matrix(0.26458333,0,0,0.26458333,-139.12561,-1.1601895)"
            style="stroke-width:1.00157481;stroke-miterlimit:4;stroke-dasharray:none">
            <rect
                x="525.8291"
                y="4.3849683"
                width="32"
                height="32"
                style="fill:url(#ii);stroke-width:1.00157481;stroke-miterlimit:4;stroke-dasharray:none"
                id="rect3453" />
        </g>
        <path
            style="fill:#ffffff;stroke:#000000;stroke-width:0;stroke-linecap:round;stroke-linejoin:round;stroke-miterlimit:4;stroke-dasharray:none"
            d="M 0.02527436,31.488174 V 31.004279 L 1.97744,27.565649 C 3.0511311,25.674402 3.9397771,24.088123 3.9522088,24.040584 3.9654921,23.989789 3.160575,22.520399 2.0000431,20.476873 L 0.02527436,16.999597 V 16.001113 15.002629 L 2.0005316,11.52478 C 3.1679899,9.4692273 3.966503,8.0114212 3.9530828,7.9601021 3.9405945,7.9123467 3.0517288,6.3266266 1.9778256,4.4362797 L 0.02527436,0.99928504 V 0.5122797 0.02527436 l 0.26538082,3.6598e-4 0.26538081,3.6597e-4 2.03419021,3.60123079 c 1.1188046,1.9806771 2.0796312,3.6753282 2.1351701,3.7658913 l 0.1009798,0.1646604 3.1901889,-0.013014 3.190189,-0.013014 2.116935,-3.7406059 2.116936,-3.74060584 h 0.564351 0.564351 l 0.615816,1.08679764 c 0.338698,0.5977387 1.292894,2.286698 2.120435,3.753243 l 1.50462,2.6664454 h 3.180984 3.180985 l 0.137896,-0.2207644 c 0.07584,-0.1214206 1.036399,-1.8150198 2.13457,-3.7635538 l 1.996675,-3.54278893 0.265381,-0.0023266 0.265381,-0.0023266 V 0.51275683 1.0002392 l -1.971401,3.4752539 c -1.08427,1.9113896 -1.9714,3.4972068 -1.9714,3.5240385 0,0.026832 0.88713,1.6127597 1.9714,3.5242854 l 1.971401,3.4755 v 1.003022 1.003022 l -1.971401,3.472043 c -1.08427,1.909624 -1.9714,3.49428 -1.9714,3.521458 0,0.02718 0.88713,1.613972 1.9714,3.526207 l 1.971401,3.476792 v 0.485104 0.485105 l -0.265381,-0.0024 -0.265381,-0.0024 -1.996675,-3.541762 C 28.346462,26.477539 27.385798,24.78379 27.309824,24.661621 l -0.138135,-0.222124 -3.187454,0.01301 -3.187454,0.01301 -2.112214,3.740605 -2.112213,3.740606 H 16.006156 15.439958 L 13.32266,28.206189 11.205363,24.465584 H 8.0037459 4.802129 l -0.5182816,0.909877 c -0.2850548,0.500432 -1.240349,2.189392 -2.1228759,3.753243 L 0.5563771,31.97207 H 0.29082573 0.02527436 Z M 17.564949,28.29465 c 0.847041,-1.494347 1.74098,-3.072874 1.986532,-3.507838 l 0.446457,-0.790843 -1.788949,-3.151957 c -0.983922,-1.733577 -1.874341,-3.305499 -1.978709,-3.493162 -0.104368,-0.187662 -0.20587,-0.341203 -0.22556,-0.341203 -0.01969,0 -0.928352,1.572736 -2.019251,3.494969 l -1.98345,3.494969 1.985689,3.504917 c 1.092129,1.927705 1.997272,3.505418 2.011428,3.50603 0.01416,6.11e-4 0.718772,-1.221535 1.565813,-2.715882 z m -4.236363,-8.504823 c 1.158948,-2.043433 2.108724,-3.74246 2.110614,-3.775616 0.0028,-0.04963 -1.282877,-2.3439 -3.847067,-6.8648915 L 11.219424,8.4921861 8.0074112,8.4791779 4.7953979,8.4661697 2.7075666,12.161682 c -1.1483072,2.032532 -2.09912371,3.738694 -2.11292553,3.791472 -0.0222013,0.0849 0.91098093,1.77174 3.80754463,6.882604 l 0.3941243,0.695416 3.2125494,-0.01301 3.2125496,-0.01301 z m 16.010291,-0.02481 2.131168,-3.765418 -1.423467,-2.515261 C 29.263671,12.100941 28.304597,10.406087 27.915302,9.7179927 L 27.207493,8.4669117 H 24.006568 20.805644 L 20.63601,8.7575669 c -0.0933,0.1598603 -1.052258,1.8544161 -2.13102,3.7656791 l -1.961386,3.475025 2.086412,3.702895 c 1.147526,2.036592 2.10818,3.731328 2.134788,3.76608 0.0378,0.04937 0.747329,0.06319 3.245641,0.06319 h 3.197264 z M 18.015638,11.498324 C 19.79387,8.3618715 19.987984,7.9976002 19.934867,7.8967271 19.902367,7.8350046 19.16011,6.5220495 18.285408,4.9790496 17.410707,3.4360497 16.544045,1.9065133 16.359494,1.5800799 16.174943,1.2536464 16.012573,0.98690475 15.998672,0.98732061 c -0.0139,4.145e-4 -0.918655,1.57859209 -2.010564,3.50705829 l -1.98529,3.5063022 1.981655,3.4935089 c 1.089909,1.921429 1.997671,3.493507 2.017248,3.493507 0.01958,0 0.925839,-1.570217 2.013917,-3.489373 z"
            id="path2695"
            transform="scale(0.26458333)" />
    </g>
</svg>
